<svg width="40" height="40" viewBox="0 0 40 40" fill="none" xmlns="http://www.w3.org/2000/svg">
<path fill-rule="evenodd" clip-rule="evenodd" d="M20 12.5C15.8579 12.5 12.5 15.8579 12.5 20C12.5 24.1421 15.8579 27.5 20 27.5C24.1421 27.5 27.5 24.1421 27.5 20C27.5 15.8579 24.1421 12.5 20 12.5ZM10 20C10 14.4772 14.4772 10 20 10C25.5228 10 30 14.4772 30 20C30 25.5228 25.5228 30 20 30C14.4772 30 10 25.5228 10 20Z" fill="black"/>
<path fill-rule="evenodd" clip-rule="evenodd" d="M16.875 5C16.0881 5 15.3471 5.37049 14.875 6L13.375 8C12.4307 9.25903 10.9488 10 9.375 10H6.25C4.17893 10 2.5 11.6789 2.5 13.75V28.75C2.5 30.8211 4.17893 32.5 6.25 32.5H33.75C35.8211 32.5 37.5 30.8211 37.5 28.75V13.75C37.5 11.6789 35.8211 10 33.75 10H30.625C29.0512 10 27.5693 9.25903 26.625 8L25.125 6C24.6529 5.37049 23.9119 5 23.125 5H16.875ZM12.875 4.5C13.8193 3.24097 15.3012 2.5 16.875 2.5H23.125C24.6988 2.5 26.1807 3.24097 27.125 4.5L28.625 6.5C29.0971 7.12951 29.8381 7.5 30.625 7.5H33.75C37.2018 7.5 40 10.2982 40 13.75V28.75C40 32.2018 37.2018 35 33.75 35H6.25C2.79822 35 0 32.2018 0 28.75V13.75C0 10.2982 2.79822 7.5 6.25 7.5H9.375C10.1619 7.5 10.9029 7.12951 11.375 6.5L12.875 4.5Z" fill="black"/>
</svg>
